<?xml version="1.0" encoding="utf-8"?>
<!-- Generator: Adobe Illustrator 24.1.2, SVG Export Plug-In . SVG Version: 6.00 Build 0)  -->
<svg version="1.1" id="Warstwa_3" xmlns="http://www.w3.org/2000/svg" xmlns:xlink="http://www.w3.org/1999/xlink" x="0px" y="0px"
	 viewBox="0 0 430 430" style="enable-background:new 0 0 430 430;" xml:space="preserve">
<style type="text/css">
	.st0{fill:#121331;}
	.st1{fill:#08a88a;}
	.st2{fill:none;stroke:#08a88a;stroke-width:12.25;stroke-miterlimit:14;}
	.st3{fill-opacity:0;}
	.st4{fill:#131432;}
	.st5{fill:none;}
</style>
<g>
	<g>
		<path class="st3" d="M247.44,99.64h-64.88V56.83h64.88V99.64z"/>
		<path class="st1" d="M247.44,105.77h-64.88c-3.38,0-6.13-2.74-6.13-6.13V56.83c0-3.38,2.74-6.13,6.13-6.13h64.88
			c3.38,0,6.13,2.74,6.13,6.13v42.81C253.56,103.02,250.82,105.77,247.44,105.77z M188.69,93.52h52.63V62.96h-52.63V93.52z"/>
	</g>
	<path class="st0" d="M215,379.29c-2.19,0-4.21-1.17-5.3-3.06l-32.44-56.18c-1.09-1.89-1.09-4.23,0-6.13
		c1.09-1.9,3.12-3.06,5.3-3.06h64.88c2.19,0,4.21,1.17,5.3,3.06c1.09,1.9,1.09,4.23,0,6.13l-32.44,56.18
		C219.21,378.13,217.19,379.29,215,379.29z M193.17,323.11L215,360.92l21.83-37.81H193.17z"/>
	<path class="st0" d="M247.44,323.11h-64.88c-3.38,0-6.13-2.74-6.13-6.13V99.64c0-3.38,2.74-6.13,6.13-6.13h64.88
		c3.38,0,6.13,2.74,6.13,6.13v217.35C253.56,320.37,250.82,323.11,247.44,323.11z M188.69,310.86h52.63v-205.1h-52.63V310.86z"/>
	<path class="st1" d="M215,230.25c-3.38,0-6.13-2.74-6.13-6.13v-97.48c0-3.38,2.74-6.13,6.13-6.13s6.13,2.74,6.13,6.13v97.48
		C221.13,227.51,218.38,230.25,215,230.25z"/>
</g>
</svg>
